{"title":"Repo.2010.BRRip.XViD.AC3-5.1.SeT-CM8","uid":6863821,"size":1547181108,"categoryP":"video","categoryS":"movies","magnet":"?xt=urn:btih:ca660538babcf712b7b062dde1a725a7b6bde281&amp;dn=Repo.2010.BRRip.XViD.AC3-5.1.SeT-CM8&amp;tr=udp%3A%2F%2Ftracker.openbittorrent.com%3A80&amp;tr=udp%3A%2F%2Fopen.demonii.com%3A1337&amp;tr=udp%3A%2F%2Ftracker.coppersurfer.tk%3A6969&amp;tr=udp%3A%2F%2Fexodus.desync.com%3A6969","seeders":0,"leechers":1,"uploader":"sceneline","files":108,"time":1323017041,"description":"- &lt;a href=&quot;\nhttp://www.Speed.Cd&quot; rel=&quot;nofollow&quot; target=&quot;_NEW&quot;&gt;\nhttp://www.Speed.Cd&lt;/a&gt;      fast  and The Hottest Private Tracker on the net\n\n   signup is open now\n\nPlease Seed back to make the speed Faster!!!\n\n------------------nfo--------------------------\n- Repo.2010.BRRip.XViD.AC3-5.1.SeT-CM8.avi\n\n\n\n\nTwo best friends..... One dumb plan.\n\n\n[url=http://www.imdb.com/title/tt0887161/url]\n\nSource   Repo 2010 720p BluRay DTS x264-DNL  Thank you  :)\n(Also thank you to our silent friends for making this possible\n\nFormat                           : AVI\nFormat/Info                      : Audio Video Interleave\nFile size                        : 1.44 GiB\nDuration                         : 1h 36mn\nOverall bit rate                 : 2 125 Kbps\nWriting application              : Lavf51.12.1\nWriting library                  : VirtualDub build 30091/release\n\nVideo\nID                               : 0\nFormat                           : xvid\nCodec ID                         : xvid\nDuration                         : 1h 36mn\nBit rate                         : 1 796 Kbps\nWidth                            : 720 pixels\nHeight                           : 404 pixels\nDisplay aspect ratio             : 16:9\nFrame rate                       : 23.976 fps\nBits/(Pixel*Frame)               : 0.257\nStream size                      : 1.22 GiB (85%)\n\nAudio\nID                               : 1\nFormat                           : AC-3\nFormat/Info                      : Audio Coding 3\nMode extension                   : CM (complete main)\nCodec ID                         : 2000\nDuration                         : 1h 36mn\nBit rate mode                    : Constant\nBit rate                         : 320 Kbps\nChannel(s)                       : 6 channels\nChannel positions                : Front: L C R, Side: L R, LFE\nSampling rate                    : 48.0 KHz\nBit depth                        : 16 bits\nCompression mode                 : Lossy\nStream size                      : 222 MiB (15%)\nAlignment                        : Split accross interleaves\nInterleave, duration             : 42 ms (1.00 video frame)\nInterleave, preload duration     : 500 ms\n\n\n\n\nbig shout out to my Homies Mr Hive , Sir Unevano, Super TED and Mr Simmo.\nGreets to SAiNTS,DTRG,SANTi,BDK, THC,SAFC, SiC, AMIABLE and mSD for Super amazing work with there H264\nQuality compression\n all the other Ledgends out there Past and Present..","torrent":{"xt":"urn:btih:ca660538babcf712b7b062dde1a725a7b6bde281","amp;dn":"Repo.2010.BRRip.XViD.AC3-5.1.SeT-CM8","amp;tr":["udp%3A%2F%2Ftracker.openbittorrent.com%3A80","udp%3A%2F%2Fopen.demonii.com%3A1337","udp%3A%2F%2Ftracker.coppersurfer.tk%3A6969","udp%3A%2F%2Fexodus.desync.com%3A6969"],"infoHash":"ca660538babcf712b7b062dde1a725a7b6bde281","infoHashBuffer":{"type":"Buffer","data":[202,102,5,56,186,188,247,18,183,176,98,221,225,167,37,167,182,189,226,129]},"announce":[],"urlList":[]}}